<svg width="200" height="200" viewBox="0 0 200 200" fill="none" xmlns="http://www.w3.org/2000/svg">
<path d="M12.5001 48.4688C12.9113 48.4712 13.319 48.3924 13.6998 48.2368C14.0805 48.0813 14.4268 47.8522 14.7188 47.5626L47.5626 14.7188C47.8539 14.4274 48.085 14.0815 48.2427 13.7008C48.4004 13.3201 48.4816 12.9121 48.4816 12.5001C48.4816 12.088 48.4004 11.68 48.2427 11.2993C48.085 10.9186 47.8539 10.5727 47.5626 10.2813C47.2712 9.98993 46.9253 9.75881 46.5446 9.60112C46.1639 9.44343 45.7559 9.36227 45.3438 9.36227C44.5116 9.36227 43.7135 9.69285 43.1251 10.2813L10.2813 43.1251C9.9884 43.4156 9.75592 43.7612 9.59727 44.142C9.43862 44.5228 9.35693 44.9313 9.35693 45.3438C9.35693 45.7563 9.43862 46.1648 9.59727 46.5456C9.75592 46.9264 9.9884 47.272 10.2813 47.5626C10.5733 47.8522 10.9196 48.0813 11.3003 48.2368C11.6811 48.3924 12.0888 48.4712 12.5001 48.4688ZM12.5001 84.0313C12.9113 84.0337 13.319 83.9549 13.6998 83.7993C14.0805 83.6438 14.4268 83.4147 14.7188 83.1251L83.1251 14.7188C83.4164 14.4274 83.6475 14.0815 83.8052 13.7008C83.9629 13.3201 84.0441 12.9121 84.0441 12.5001C84.0441 12.088 83.9629 11.68 83.8052 11.2993C83.6475 10.9186 83.4164 10.5727 83.1251 10.2813C82.8337 9.98993 82.4878 9.75881 82.1071 9.60112C81.7264 9.44343 81.3184 9.36227 80.9063 9.36227C80.4942 9.36227 80.0862 9.44343 79.7055 9.60112C79.3248 9.75881 78.9789 9.98993 78.6876 10.2813L10.2813 78.6876C9.9884 78.9781 9.75592 79.3237 9.59727 79.7045C9.43862 80.0853 9.35693 80.4938 9.35693 80.9063C9.35693 81.3188 9.43862 81.7273 9.59727 82.1081C9.75592 82.4889 9.9884 82.8345 10.2813 83.1251C10.5733 83.4147 10.9196 83.6438 11.3003 83.7993C11.6811 83.9549 12.0888 84.0337 12.5001 84.0313ZM12.5001 119.531C13.3132 119.57 14.1092 119.29 14.7188 118.75L118.75 14.7188C119.339 14.1304 119.669 13.3322 119.669 12.5001C119.669 11.6679 119.339 10.8698 118.75 10.2813C118.162 9.69285 117.363 9.36227 116.531 9.36227C115.699 9.36227 114.901 9.69285 114.313 10.2813L10.2813 114.188C9.9884 114.478 9.75592 114.824 9.59727 115.205C9.43862 115.585 9.35693 115.994 9.35693 116.406C9.35693 116.819 9.43862 117.227 9.59727 117.608C9.75592 117.989 9.9884 118.335 10.2813 118.625C10.5733 118.915 10.9196 119.144 11.3003 119.299C11.6811 119.455 12.0888 119.534 12.5001 119.531ZM12.5001 155.094C12.9113 155.096 13.319 155.017 13.6998 154.862C14.0805 154.706 14.4268 154.477 14.7188 154.188L154.188 14.7188C154.479 14.4274 154.71 14.0815 154.868 13.7008C155.025 13.3201 155.107 12.9121 155.107 12.5001C155.107 12.088 155.025 11.68 154.868 11.2993C154.71 10.9186 154.479 10.5727 154.188 10.2813C153.896 9.98993 153.55 9.75881 153.17 9.60112C152.789 9.44343 152.381 9.36227 151.969 9.36227C151.557 9.36227 151.149 9.44343 150.768 9.60112C150.387 9.75881 150.041 9.98993 149.75 10.2813L10.2813 149.75C9.9884 150.041 9.75592 150.386 9.59727 150.767C9.43862 151.148 9.35693 151.556 9.35693 151.969C9.35693 152.381 9.43862 152.79 9.59727 153.171C9.75592 153.551 9.9884 153.897 10.2813 154.188C10.5733 154.477 10.9196 154.706 11.3003 154.862C11.6811 155.017 12.0888 155.096 12.5001 155.094ZM189.719 10.2813C189.428 9.9884 189.083 9.75592 188.702 9.59727C188.321 9.43862 187.913 9.35693 187.5 9.35693C187.088 9.35693 186.679 9.43862 186.298 9.59727C185.917 9.75592 185.572 9.9884 185.281 10.2813L10.2813 185.281C9.9884 185.572 9.75592 185.917 9.59727 186.298C9.43862 186.679 9.35693 187.088 9.35693 187.5C9.35693 187.913 9.43862 188.321 9.59727 188.702C9.75592 189.083 9.9884 189.428 10.2813 189.719C10.5718 190.012 10.9174 190.244 11.2983 190.403C11.6791 190.561 12.0875 190.643 12.5001 190.643C12.9126 190.643 13.321 190.561 13.7019 190.403C14.0827 190.244 14.4283 190.012 14.7188 189.719L189.719 14.7188C190.012 14.4283 190.244 14.0827 190.403 13.7019C190.561 13.321 190.643 12.9126 190.643 12.5001C190.643 12.0875 190.561 11.6791 190.403 11.2983C190.244 10.9174 190.012 10.5718 189.719 10.2813ZM185.281 45.8126L45.8126 185.281C45.5197 185.572 45.2872 185.917 45.1285 186.298C44.9699 186.679 44.8882 187.088 44.8882 187.5C44.8882 187.913 44.9699 188.321 45.1285 188.702C45.2872 189.083 45.5197 189.428 45.8126 189.719C46.1031 190.012 46.4487 190.244 46.8295 190.403C47.2103 190.561 47.6188 190.643 48.0313 190.643C48.4438 190.643 48.8523 190.561 49.2331 190.403C49.6139 190.244 49.9595 190.012 50.2501 189.719L189.719 50.2501C190.307 49.6616 190.638 48.8635 190.638 48.0313C190.638 47.1991 190.307 46.401 189.719 45.8126C189.13 45.2241 188.332 44.8935 187.5 44.8935C186.668 44.8935 185.87 45.2241 185.281 45.8126ZM185.281 81.2501L81.2501 185.281C80.9572 185.572 80.7247 185.917 80.566 186.298C80.4074 186.679 80.3257 187.088 80.3257 187.5C80.3257 187.913 80.4074 188.321 80.566 188.702C80.7247 189.083 80.9572 189.428 81.2501 189.719C81.5406 190.012 81.8862 190.244 82.267 190.403C82.6478 190.561 83.0563 190.643 83.4688 190.643C83.8813 190.643 84.2898 190.561 84.6706 190.403C85.0514 190.244 85.397 190.012 85.6876 189.719L189.719 85.8126C190.324 85.2241 190.67 84.4194 190.682 83.5755C190.694 82.7316 190.37 81.9176 189.781 81.3126C189.193 80.7075 188.388 80.361 187.544 80.3493C186.7 80.3376 185.886 80.6616 185.281 81.2501ZM185.281 116.875L116.875 185.281C116.582 185.572 116.35 185.917 116.191 186.298C116.032 186.679 115.951 187.088 115.951 187.5C115.951 187.913 116.032 188.321 116.191 188.702C116.35 189.083 116.582 189.428 116.875 189.719C117.166 190.012 117.511 190.244 117.892 190.403C118.273 190.561 118.681 190.643 119.094 190.643C119.506 190.643 119.915 190.561 120.296 190.403C120.676 190.244 121.022 190.012 121.313 189.719L189.719 121.313C190.307 120.724 190.638 119.926 190.638 119.094C190.638 118.262 190.307 117.464 189.719 116.875C189.13 116.287 188.332 115.956 187.5 115.956C186.668 115.956 185.87 116.287 185.281 116.875ZM185.281 152.438L152.438 185.281C152.145 185.572 151.912 185.917 151.754 186.298C151.595 186.679 151.513 187.088 151.513 187.5C151.513 187.913 151.595 188.321 151.754 188.702C151.912 189.083 152.145 189.428 152.438 189.719C152.728 190.012 153.074 190.244 153.454 190.403C153.835 190.561 154.244 190.643 154.656 190.643C155.069 190.643 155.477 190.561 155.858 190.403C156.239 190.244 156.585 190.012 156.875 189.719L189.719 156.875C190.307 156.287 190.638 155.489 190.638 154.656C190.638 153.824 190.307 153.026 189.719 152.438C189.13 151.849 188.332 151.519 187.5 151.519C186.668 151.519 185.87 151.849 185.281 152.438Z" fill="url(#paint0_linear_2607_201)"/>
<defs>
<linearGradient id="paint0_linear_2607_201" x1="191" y1="9" x2="9" y2="191" gradientUnits="userSpaceOnUse">
<stop offset="0.210142" stop-color="#042769" stop-opacity="0"/>
<stop offset="0.66327" stop-color="#084CCF"/>
</linearGradient>
</defs>
</svg>
